<svg xmlns="http://www.w3.org/2000/svg" width="390" height="151" xmlns:v="https://vecta.io/nano"><path d="M111.051 19.105c14.587 11.399 23.161 26.428 25.578 44.691 1.696 16.427-2.572 33.749-12.924 46.841-2.766 3.254-5.691 6.336-8.705 9.362l1.461 2.23 1.914 2.957 1.898 2.918c1.546 2.593 2.702 5.063 3.727 7.895l-3.75 3.063-2.109 1.723C116 142 116 142 114 142.063c-3.114-1.654-4.388-4.177-6.25-7.125l-2.141-3.348L104 129c-4.851.854-9.328 2.435-13.965 4.063-15.55 4.803-33.349 2.54-47.723-4.687-16.185-9.61-26.862-23.079-32.453-41.039C5.666 69.439 9.181 51.685 18.098 36 27.432 21.28 42.599 11.355 59.5 7.504c18.796-2.706 35.816.743 51.551 11.602zM34 35C22.452 48.952 19.731 63.442 21 81c2.241 12.434 10.023 24.332 20 32 14.047 8.724 27.5 12.216 43.938 8.688 4.216-.987 7.44-2.306 11.063-4.687l-3-6c-4.002.616-6.695 2.773-10 5h-2c-1.289-1.75-1.289-1.75-2.625-4l-1.352-2.25L76 108l2.188-.777c2.975-1.293 5.225-2.833 7.813-4.785l2.875-2.125L92 98l7-5.062 1.672-1.231C102.25 90.59 102.25 90.59 105 89c3.754 1.251 4.241 2.565 6 6v2c-1.75 1.289-1.75 1.289-4 2.625l-2.25 1.352L103 102c.613 2.962 1.254 4.381 3 7 8.573-3.863 12.494-12.721 16-21 4.288-12.34 3.249-27.146-2-39-7.341-14.44-17.999-23.244-33.242-28.82C68.164 15.198 47.123 20.84 34 35zm152 8c2.656 1.897 3.572 3.145 5 6l.25 4.875.078 2.617c-.389 2.972-1.465 4.22-3.328 6.508.279 3.067 1.242 4.364 3 7-3.312.25-3.312.25-7 0l-3-4c-1.878-.8-1.878-.8-4-1.437-2.813-.977-3.906-1.462-6-3.687-1.421-4.084-1.756-7.606-1-11.875 3.562-7.002 8.555-7.377 16-6zm-10 6c-.551 3.054-.558 5.947 0 9 2.162 2.282 2.162 2.282 5 3l3-1c1.177-2.353 1.166-3.881 1.188-6.5l.043-2.406c-.034-2.314-.034-2.314-2.23-4.094-3.967-.435-3.967-.435-7 2zm151.625 42.938l3.602.027L334 92l-1.312 4.375-.738 2.461C331 101 331 101 328 103h-5v2l5.957-.195C331 105 331 105 334 107c-.25 3.375-.25 3.375-1 7-2.966 2.08-5.564 2.271-9.125 2.25l-2.633.016C319 116 319 116 317 114c-.25-2.5-.25-2.5 0-5l2-2c.827-2.468.827-2.468 1-5l-2-2c.25-3.562.25-3.562 1-7 2.884-1.442 5.417-1.094 8.625-1.062zM324 94l-1 5 4 1v-5l-3-1zm-2 15v4h6v-4h-6z" fill="#ff8a75"/><path d="M244 41h6l.063 4.75.035 2.672c-.089 2.36-.429 4.323-1.098 6.578h2l.875-1.812C253 51 253 51 255 48c3.125-.187 3.125-.187 6 0l-2.125 2.688c-2.225 3.065-2.225 3.065-1.312 5.813L259 59l1.625 3.313L262 65c-2.812.25-2.812.25-6 0-1.875-1.875-1.875-1.875-3-4v-2h-3v6h-6V41z" fill="#ff8b76"/><path d="M226 85h5l1 8 1-1c3.438-.25 3.438-.25 7 0 2.491 3.737 2.207 5.745 2.125 10.188l-.055 3.855L242 109h-5l-1-13h-4l-1 13h-5V85z" fill="#ff8a75"/><path d="M277.867 91.527C280 92 280 92 282.625 93.938c1.913 4.26 1.693 7.619.375 12.063-2.321 2.946-3.768 2.971-7.5 3.438-3.5-.437-3.5-.437-5.875-2.312-2.69-3.517-3.06-5.691-2.625-10.125 2.571-5.142 5.457-5.821 10.867-5.473zM275 95l-2 1v8a28.06 28.06 0 0 0 4 1c1.206-.983 1.206-.983 1.098-2.848l-.035-2.215L278 96l-3-1z" fill="#ff8a76"/><path d="M360 92c2.063 1.625 2.063 1.625 3 4 .188 3.25.188 3.25 0 6l-10 1c.983 1.206.983 1.206 2.848 1.098L362 104v4c-3.229 1.615-6.509 1.581-10 1-3-2.062-3-2.062-5-5-.516-4.202-.453-7.457 2-11 3.45-1.725 7.228-1.491 11-1zm-6 3l-1 3h5l-1-3h-3zm-21-47c3 2 3 2 3.512 3.945L337 58l-10 1v2l9-1v4c-3.219 1.61-6.509 1.454-10 1-3-1.437-3-1.437-5-4-.893-4.307-.734-7.747 1.5-11.562 3.732-2.146 6.215-1.846 10.5-1.437zm-5 3l-2 3h6l-1-3h-3zM196.438 91.688l2.371-.051c2.712.45 3.554 1.189 5.191 3.363.75 3.125.75 3.125 1 6-1 1-1 1-3.285 1.098l-2.777-.035-2.785-.027L194 102l1 2c1.895.465 1.895.465 4.063.625L203 105l-1 4c-9.491.316-9.491.316-12-2-1.631-3.78-2.297-6.863-1.25-10.875 2.182-3.71 3.494-4.417 7.688-4.437zM195 95l-1 3h6l-2-3h-3z" fill="#ff8b76"/><path d="M196 48h5l1 12h3l2-12h5v17h-4v-2l-1.562 1.063c-3.402 1.309-5.923.667-9.437-.062-1-1-1-1-1.098-4.379l.035-4.184.014-2.154L196 48zm51 44h4v2l3-2c3.563-.25 3.563-.25 7 0 2 2 2 2 2.195 5.477l-.07 4.148-.027 2.141L263 109h-5l-1-12-4-1-1 13h-5V92zm63 0c2.5 1.5 2.5 1.5 4 4 .715 5.007.811 6.854-2.125 11-2.875 2-2.875 2-5.875 2.563-3.77-.707-5.404-1.744-8-4.562-1.079-3.382-1.183-5.327-.25-8.75 2.741-4.934 7.14-5.052 12.25-4.25zm-5 3c-2.411 1.956-2.411 1.956-2.125 5.625L303 104l5 1c1.2-5.282 1.2-5.282-1-10h-2zm-136-8h17v4h-6v18h-5V91h-6v-4zm131-39h6l3 9 4-9h5c-.655 4.058-1.946 7.54-3.562 11.313l-1.379 3.238L312 65h-5c-2.553-5.599-4.897-11.216-7-17zm71.383 43.805l2.742.07 2.758.055L379 92v4l-7-1v2l2.875.875C378 99 378 99 380 101c.375 2.438.375 2.438 0 5-1.5 1.813-1.5 1.813-4 3-2.721.239-5.258.137-8 0l-1-5 8 1v-2l-2.875-.875C369 101 369 101 367 99c-.25-2.5-.25-2.5 0-5 2-2 2-2 4.383-2.195zm-102.219-44l2.461.07 2.477.055L276 48v4l-6-1c.903 2.339.903 2.339 4 3.313 3 1.688 3 1.688 4.125 4.125C278 61 278 61 276.563 63.313 272.882 65.736 270.354 65.29 266 65l-1-5h7l-1.531-.918C268.508 57.818 266.72 56.578 265 55c-.562-2.687-.562-2.687 0-5 2-2 2-2 4.164-2.195z" fill="#ff8a75"/><path d="M288 85h5c1 1 1 1 1.114 3.225l-.016 2.904-.01 3.135-.025 3.299-.014 3.311L294 109h-6V85z" fill="#ff8c78"/><path d="M221 92l1 2-1 2-6 1c-1.002 3.583-1.002 3.583 0 7h7c-.375 1.938-.375 1.938-1 4-2.889 1.444-4.796 1.377-8 1-2.875-2.062-2.875-2.062-5-5-.656-4.083-.378-6.228 1.438-9.937 3.711-2.987 6.971-2.504 11.563-2.062zm14.625-44.062l2.477.027L240 48l-1 4-6 1v6c3.471.75 3.471.75 7 1v4c-3.092 1.546-5.594 1.294-9 1-2.973-2.034-3.823-3.458-4.937-6.875-.077-3.843.91-5.896 2.938-9.125 2.405-1.203 3.95-1.101 6.625-1.062zM292 41h5v24h-5V41zm49 7h4v2l3-2h4v5h-5l-1 12h-5V48z" fill="#ff8a75"/><path d="M337 92h6v17h-6V92z" fill="#ff8c77"/><path d="M282 48h5v17h-5V48zm-65 0h5v17h-5V48zm121 37l5 1v3h-5v-4zm-56-44h5v4h-5v-4zm-65 0h5v4h-5v-4z" fill="#ff8a75"/></svg>