<?xml version="1.0" encoding="UTF-8"?>
<svg version="1.1" xmlns="http://www.w3.org/2000/svg" width="390" height="151">
<path d="M0 0 C14.58666287 11.39898274 23.16070843 26.42763682 25.578125 44.69140625 C27.27446161 61.11829171 23.00641153 78.44074995 12.65380859 91.53271484 C9.88756116 94.7862602 6.96323228 97.86838889 3.94921875 100.89453125 C4.43132812 101.63058594 4.9134375 102.36664063 5.41015625 103.125 C6.04179688 104.10082031 6.6734375 105.07664062 7.32421875 106.08203125 C7.95070313 107.04496094 8.5771875 108.00789063 9.22265625 109 C10.76910187 111.59257061 11.9242995 114.06306241 12.94921875 116.89453125 C11.71186891 117.93066158 10.45877238 118.94800927 9.19921875 119.95703125 C8.15507812 120.80974609 8.15507812 120.80974609 7.08984375 121.6796875 C4.94921875 122.89453125 4.94921875 122.89453125 2.94921875 122.95703125 C-0.16499774 121.30260374 -1.43888575 118.78003246 -3.30078125 115.83203125 C-4.0071875 114.72730469 -4.71359375 113.62257813 -5.44140625 112.484375 C-6.23804687 111.20240234 -6.23804687 111.20240234 -7.05078125 109.89453125 C-11.9014904 110.74896809 -16.37849493 112.32954818 -21.015625 113.95703125 C-36.56543985 118.76006286 -54.36475207 116.49736306 -68.73828125 109.26953125 C-84.92298195 99.65986521 -95.60039532 86.19063401 -101.19140625 68.23046875 C-105.3846262 50.33356713 -101.86996844 32.5791269 -92.953125 16.89453125 C-83.61901289 2.17461728 -68.45207991 -7.75035512 -51.55078125 -11.6015625 C-32.75457828 -14.30771226 -15.7343577 -10.85892292 0 0 Z M-77.05078125 15.89453125 C-88.59851996 29.84700514 -91.3198521 44.33668787 -90.05078125 61.89453125 C-87.80976192 74.32813852 -80.02742307 86.22664946 -70.05078125 93.89453125 C-56.00362581 102.61891097 -42.55091069 106.11101384 -26.11328125 102.58203125 C-21.89733378 101.59465322 -18.67284575 100.27588858 -15.05078125 97.89453125 C-16.04078125 95.91453125 -17.03078125 93.93453125 -18.05078125 91.89453125 C-22.05256033 92.51018957 -24.74613873 94.66748955 -28.05078125 96.89453125 C-28.71078125 96.89453125 -29.37078125 96.89453125 -30.05078125 96.89453125 C-31.33984375 95.14453125 -31.33984375 95.14453125 -32.67578125 92.89453125 C-33.12179688 92.15203125 -33.5678125 91.40953125 -34.02734375 90.64453125 C-34.36507812 90.06703125 -34.7028125 89.48953125 -35.05078125 88.89453125 C-34.32890625 88.63800781 -33.60703125 88.38148437 -32.86328125 88.1171875 C-29.88787122 86.82371064 -27.63788046 85.2841869 -25.05078125 83.33203125 C-24.10203125 82.63078125 -23.15328125 81.92953125 -22.17578125 81.20703125 C-21.14453125 80.44390625 -20.11328125 79.68078125 -19.05078125 78.89453125 C-16.73038384 77.18835668 -14.39588942 75.5040432 -12.05078125 73.83203125 C-11.4990625 73.425896 -10.94734375 73.01976074 -10.37890625 72.60131836 C-8.80078125 71.484375 -8.80078125 71.484375 -6.05078125 69.89453125 C-2.29701973 71.14578509 -1.81004836 72.45977165 -0.05078125 75.89453125 C-0.05078125 76.55453125 -0.05078125 77.21453125 -0.05078125 77.89453125 C-1.80078125 79.18359375 -1.80078125 79.18359375 -4.05078125 80.51953125 C-4.79328125 80.96554688 -5.53578125 81.4115625 -6.30078125 81.87109375 C-7.16703125 82.37769531 -7.16703125 82.37769531 -8.05078125 82.89453125 C-7.43800513 85.85628248 -6.79705603 87.27511908 -5.05078125 89.89453125 C3.52194547 86.0312853 7.44343054 77.17326004 10.94921875 68.89453125 C15.23741977 56.55501404 14.19785164 41.74836677 8.94921875 29.89453125 C1.60842579 15.45428647 -9.04995127 6.65093246 -24.29296875 1.07421875 C-42.88630295 -3.90739154 -63.9273667 1.73420493 -77.05078125 15.89453125 Z " fill="#FF8A75" transform="translate(111.05078125,19.10546875)"/>
<path d="M0 0 C2.65563802 1.8968843 3.57242527 3.14485055 5 6 C5.203125 8.2421875 5.203125 8.2421875 5.25 10.875 C5.27578125 11.73867188 5.3015625 12.60234375 5.328125 13.4921875 C4.93931608 16.46379853 3.86276782 17.71230371 2 20 C2.27882869 23.06711564 3.24247137 24.36370706 5 27 C1.6875 27.25 1.6875 27.25 -2 27 C-3.03565785 25.69417053 -4.03126968 24.35622245 -5 23 C-6.87831625 22.19966408 -6.87831625 22.19966408 -9 21.5625 C-11.81254365 20.58534788 -12.90578825 20.10009998 -15 17.875 C-16.4206137 13.79073562 -16.75645547 10.26910515 -16 6 C-12.43767359 -1.00181398 -7.44494609 -1.37656938 0 0 Z M-10 6 C-10.55061312 9.05445384 -10.55821264 11.94657688 -10 15 C-7.83836181 17.28168358 -7.83836181 17.28168358 -5 18 C-4.01 17.67 -3.02 17.34 -2 17 C-0.82326802 14.64653604 -0.83376134 13.1193967 -0.8125 10.5 C-0.79123047 9.30890625 -0.79123047 9.30890625 -0.76953125 8.09375 C-0.80333697 5.77966683 -0.80333697 5.77966683 -3 4 C-6.9674509 3.56530472 -6.9674509 3.56530472 -10 6 Z " fill="#FF8A75" transform="translate(186,43)"/>
<path d="M0 0 C1.18851562 0.00902344 2.37703125 0.01804687 3.6015625 0.02734375 C4.51679688 0.03894531 5.43203125 0.05054687 6.375 0.0625 C5.95076756 1.52474799 5.51009755 2.98223412 5.0625 4.4375 C4.81886719 5.24960938 4.57523437 6.06171875 4.32421875 6.8984375 C3.375 9.0625 3.375 9.0625 0.375 11.0625 C-2.3125 11.1875 -2.3125 11.1875 -4.625 11.0625 C-4.625 11.7225 -4.625 12.3825 -4.625 13.0625 C-1.64648438 12.96484375 -1.64648438 12.96484375 1.33203125 12.8671875 C3.375 13.0625 3.375 13.0625 6.375 15.0625 C6.125 18.4375 6.125 18.4375 5.375 22.0625 C2.40905777 24.14268573 -0.18918295 24.33375861 -3.75 24.3125 C-5.05324219 24.32023437 -5.05324219 24.32023437 -6.3828125 24.328125 C-8.625 24.0625 -8.625 24.0625 -10.625 22.0625 C-10.875 19.5625 -10.875 19.5625 -10.625 17.0625 C-9.965 16.4025 -9.305 15.7425 -8.625 15.0625 C-7.79795995 12.59426909 -7.79795995 12.59426909 -7.625 10.0625 C-8.285 9.4025 -8.945 8.7425 -9.625 8.0625 C-9.375 4.5 -9.375 4.5 -8.625 1.0625 C-5.74084117 -0.37957941 -3.20778472 -0.03144887 0 0 Z M-3.625 2.0625 C-3.955 3.7125 -4.285 5.3625 -4.625 7.0625 C-3.305 7.3925 -1.985 7.7225 -0.625 8.0625 C-0.625 6.4125 -0.625 4.7625 -0.625 3.0625 C-1.615 2.7325 -2.605 2.4025 -3.625 2.0625 Z M-5.625 17.0625 C-5.625 18.3825 -5.625 19.7025 -5.625 21.0625 C-3.645 21.0625 -1.665 21.0625 0.375 21.0625 C0.375 19.7425 0.375 18.4225 0.375 17.0625 C-1.605 17.0625 -3.585 17.0625 -5.625 17.0625 Z " fill="#FF8A75" transform="translate(327.625,91.9375)"/>
<path d="M0 0 C1.98 0 3.96 0 6 0 C6.027193 1.58323688 6.04648306 3.16661062 6.0625 4.75 C6.07410156 5.63171875 6.08570313 6.5134375 6.09765625 7.421875 C6.00826198 9.7818838 5.66912821 11.74498524 5 14 C5.66 14 6.32 14 7 14 C7.28875 13.401875 7.5775 12.80375 7.875 12.1875 C9 10 9 10 11 7 C14.125 6.8125 14.125 6.8125 17 7 C16.29875 7.886875 15.5975 8.77375 14.875 9.6875 C12.65036289 12.75275391 12.65036289 12.75275391 13.5625 15.5 C14.036875 16.325 14.51125 17.15 15 18 C15.53625 19.093125 16.0725 20.18625 16.625 21.3125 C17.305625 22.6428125 17.305625 22.6428125 18 24 C15.1875 24.25 15.1875 24.25 12 24 C10.125 22.125 10.125 22.125 9 20 C9 19.34 9 18.68 9 18 C8.01 18 7.02 18 6 18 C6 19.98 6 21.96 6 24 C4.02 24 2.04 24 0 24 C0 16.08 0 8.16 0 0 Z " fill="#FF8B76" transform="translate(244,41)"/>
<path d="M0 0 C1.65 0 3.3 0 5 0 C5.33 2.64 5.66 5.28 6 8 C6.33 7.67 6.66 7.34 7 7 C10.4375 6.75 10.4375 6.75 14 7 C16.49118953 10.7367843 16.2065226 12.74451819 16.125 17.1875 C16.10695312 18.45980469 16.08890625 19.73210937 16.0703125 21.04296875 C16.04710937 22.01878906 16.02390625 22.99460937 16 24 C14.35 24 12.7 24 11 24 C10.67 19.71 10.34 15.42 10 11 C8.68 11 7.36 11 6 11 C5.67 15.29 5.34 19.58 5 24 C3.35 24 1.7 24 0 24 C0 16.08 0 8.16 0 0 Z " fill="#FF8A75" transform="translate(226,85)"/>
<path d="M0 0 C2.1328125 0.47265625 2.1328125 0.47265625 4.7578125 2.41015625 C6.67041913 6.67005284 6.45130283 10.02917261 5.1328125 14.47265625 C2.81137031 17.4191021 1.36483588 17.44365333 -2.3671875 17.91015625 C-5.8671875 17.47265625 -5.8671875 17.47265625 -8.2421875 15.59765625 C-10.93182302 12.08044057 -11.30186513 9.90636811 -10.8671875 5.47265625 C-8.29620039 0.33068202 -5.4097473 -0.34815205 0 0 Z M-2.8671875 3.47265625 C-3.8571875 3.96765625 -3.8571875 3.96765625 -4.8671875 4.47265625 C-4.8671875 7.11265625 -4.8671875 9.75265625 -4.8671875 12.47265625 C-2.92115476 13.06335639 -2.92115476 13.06335639 -0.8671875 13.47265625 C0.33842434 12.48997766 0.33842434 12.48997766 0.23046875 10.625 C0.21886719 9.89410156 0.20726562 9.16320312 0.1953125 8.41015625 C0.1746875 7.11078125 0.1540625 5.81140625 0.1328125 4.47265625 C-0.8571875 4.14265625 -1.8471875 3.81265625 -2.8671875 3.47265625 Z " fill="#FF8A76" transform="translate(277.8671875,91.52734375)"/>
<path d="M0 0 C2.0625 1.625 2.0625 1.625 3 4 C3.1875 7.25 3.1875 7.25 3 10 C-0.3 10.33 -3.6 10.66 -7 11 C-6.01732141 12.20561184 -6.01732141 12.20561184 -4.15234375 12.09765625 C-2.1015625 12.06510417 -0.05078125 12.03255208 2 12 C2 13.32 2 14.64 2 16 C-1.22938367 17.61469184 -4.50856753 17.58079278 -8 17 C-11 14.9375 -11 14.9375 -13 12 C-13.51605446 7.79784228 -13.45273312 4.54283673 -11 1 C-7.55035617 -0.72482191 -3.77241538 -0.49055218 0 0 Z M-6 3 C-6.33 3.99 -6.66 4.98 -7 6 C-5.35 6 -3.7 6 -2 6 C-2.33 5.01 -2.66 4.02 -3 3 C-3.99 3 -4.98 3 -6 3 Z " fill="#FF8B76" transform="translate(360,92)"/>
<path d="M0 0 C3 2 3 2 3.51171875 3.9453125 C3.67447917 5.96354167 3.83723958 7.98177083 4 10 C0.7 10.33 -2.6 10.66 -6 11 C-6 11.66 -6 12.32 -6 13 C-1.545 12.505 -1.545 12.505 3 12 C3 13.32 3 14.64 3 16 C-0.21943632 17.60971816 -3.50914646 17.45387771 -7 17 C-10 15.5625 -10 15.5625 -12 13 C-12.89296969 8.69319927 -12.73370655 5.25341536 -10.5 1.4375 C-6.76776425 -0.70853556 -4.28459254 -0.40805643 0 0 Z M-5 3 C-5.99 4.485 -5.99 4.485 -7 6 C-5.02 6 -3.04 6 -1 6 C-1.33 5.01 -1.66 4.02 -2 3 C-2.99 3 -3.98 3 -5 3 Z " fill="#FF8B76" transform="translate(333,48)"/>
<path d="M0 0 C1.17369141 -0.02513672 1.17369141 -0.02513672 2.37109375 -0.05078125 C5.08261225 0.39872182 5.92532786 1.13805155 7.5625 3.3125 C8.3125 6.4375 8.3125 6.4375 8.5625 9.3125 C7.5625 10.3125 7.5625 10.3125 5.27734375 10.41015625 C3.90255859 10.39275391 3.90255859 10.39275391 2.5 10.375 C1.58089844 10.36597656 0.66179687 10.35695313 -0.28515625 10.34765625 C-0.99542969 10.33605469 -1.70570313 10.32445313 -2.4375 10.3125 C-2.1075 10.9725 -1.7775 11.6325 -1.4375 12.3125 C0.45783342 12.77773063 0.45783342 12.77773063 2.625 12.9375 C3.924375 13.06125 5.22375 13.185 6.5625 13.3125 C6.2325 14.6325 5.9025 15.9525 5.5625 17.3125 C-3.92811662 17.62885389 -3.92811662 17.62885389 -6.4375 15.3125 C-8.06850295 11.53231088 -8.73405549 8.44929604 -7.6875 4.4375 C-5.50505395 0.72734171 -4.19331316 0.02065672 0 0 Z M-1.4375 3.3125 C-1.7675 4.3025 -2.0975 5.2925 -2.4375 6.3125 C-0.4575 6.3125 1.5225 6.3125 3.5625 6.3125 C2.9025 5.3225 2.2425 4.3325 1.5625 3.3125 C0.5725 3.3125 -0.4175 3.3125 -1.4375 3.3125 Z " fill="#FF8B76" transform="translate(196.4375,91.6875)"/>
<path d="M0 0 C1.65 0 3.3 0 5 0 C5.33 3.96 5.66 7.92 6 12 C6.99 12 7.98 12 9 12 C9.66 8.04 10.32 4.08 11 0 C12.65 0 14.3 0 16 0 C16 5.61 16 11.22 16 17 C14.68 17 13.36 17 12 17 C12 16.34 12 15.68 12 15 C11.484375 15.350625 10.96875 15.70125 10.4375 16.0625 C7.03530841 17.37103523 4.51474316 16.729475 1 16 C0 15 0 15 -0.09765625 11.62109375 C-0.09098369 10.22652923 -0.07902532 8.83198257 -0.0625 7.4375 C-0.05798828 6.72658203 -0.05347656 6.01566406 -0.04882812 5.28320312 C-0.03700864 3.52209987 -0.01907263 1.76103964 0 0 Z " fill="#FF8A75" transform="translate(196,48)"/>
<path d="M0 0 C1.32 0 2.64 0 4 0 C4 0.66 4 1.32 4 2 C4.99 1.34 5.98 0.68 7 0 C10.5625 -0.25 10.5625 -0.25 14 0 C16 2 16 2 16.1953125 5.4765625 C16.18201493 6.85950968 16.15816232 8.24238654 16.125 9.625 C16.11597656 10.33140625 16.10695313 11.0378125 16.09765625 11.765625 C16.07407603 13.51056098 16.03820461 15.25532295 16 17 C14.35 17 12.7 17 11 17 C10.67 13.04 10.34 9.08 10 5 C8.68 4.67 7.36 4.34 6 4 C5.67 8.29 5.34 12.58 5 17 C3.35 17 1.7 17 0 17 C0 11.39 0 5.78 0 0 Z " fill="#FF8A75" transform="translate(247,92)"/>
<path d="M0 0 C2.5 1.5 2.5 1.5 4 4 C4.7152453 9.00671711 4.81148802 10.85436985 1.875 15 C-1 17 -1 17 -4 17.5625 C-7.76991795 16.85564038 -9.40418092 15.81831785 -12 13 C-13.07944733 9.61773171 -13.1834292 7.67257374 -12.25 4.25 C-9.50911814 -0.68358735 -5.10992796 -0.80196053 0 0 Z M-5 3 C-7.41121859 4.95633975 -7.41121859 4.95633975 -7.125 8.625 C-7.08375 9.73875 -7.0425 10.8525 -7 12 C-4.525 12.495 -4.525 12.495 -2 13 C-0.80011955 7.71800407 -0.80011955 7.71800407 -3 3 C-3.66 3 -4.32 3 -5 3 Z " fill="#FF8A75" transform="translate(310,92)"/>
<path d="M0 0 C5.61 0 11.22 0 17 0 C17 1.32 17 2.64 17 4 C15.02 4 13.04 4 11 4 C11 9.94 11 15.88 11 22 C9.35 22 7.7 22 6 22 C6 16.06 6 10.12 6 4 C4.02 4 2.04 4 0 4 C0 2.68 0 1.36 0 0 Z " fill="#FF8A75" transform="translate(169,87)"/>
<path d="M0 0 C1.98 0 3.96 0 6 0 C6.99 2.97 7.98 5.94 9 9 C10.32 6.03 11.64 3.06 13 0 C14.65 0 16.3 0 18 0 C17.34496718 4.05819183 16.05440879 7.53971282 14.4375 11.3125 C13.98246094 12.38113281 13.52742188 13.44976562 13.05859375 14.55078125 C12.70925781 15.35902344 12.35992187 16.16726562 12 17 C10.35 17 8.7 17 7 17 C4.44669421 11.40087258 2.10319285 5.78378035 0 0 Z " fill="#FF8A75" transform="translate(300,48)"/>
<path d="M0 0 C0.90492188 0.02320312 1.80984375 0.04640625 2.7421875 0.0703125 C4.10730469 0.09738281 4.10730469 0.09738281 5.5 0.125 C6.19867188 0.14820312 6.89734375 0.17140625 7.6171875 0.1953125 C7.6171875 1.5153125 7.6171875 2.8353125 7.6171875 4.1953125 C5.3071875 3.8653125 2.9971875 3.5353125 0.6171875 3.1953125 C0.6171875 3.8553125 0.6171875 4.5153125 0.6171875 5.1953125 C2.0403125 5.6284375 2.0403125 5.6284375 3.4921875 6.0703125 C6.6171875 7.1953125 6.6171875 7.1953125 8.6171875 9.1953125 C8.9921875 11.6328125 8.9921875 11.6328125 8.6171875 14.1953125 C7.1171875 16.0078125 7.1171875 16.0078125 4.6171875 17.1953125 C1.89638905 17.43416122 -0.64095318 17.33240547 -3.3828125 17.1953125 C-3.7128125 15.5453125 -4.0428125 13.8953125 -4.3828125 12.1953125 C-1.7428125 12.5253125 0.8971875 12.8553125 3.6171875 13.1953125 C3.6171875 12.5353125 3.6171875 11.8753125 3.6171875 11.1953125 C2.6684375 10.9065625 1.7196875 10.6178125 0.7421875 10.3203125 C-2.3828125 9.1953125 -2.3828125 9.1953125 -4.3828125 7.1953125 C-4.6328125 4.6953125 -4.6328125 4.6953125 -4.3828125 2.1953125 C-2.3828125 0.1953125 -2.3828125 0.1953125 0 0 Z " fill="#FF8A75" transform="translate(371.3828125,91.8046875)"/>
<path d="M0 0 C1.21816406 0.03480469 1.21816406 0.03480469 2.4609375 0.0703125 C3.68683594 0.09738281 3.68683594 0.09738281 4.9375 0.125 C5.87722656 0.15980469 5.87722656 0.15980469 6.8359375 0.1953125 C6.8359375 1.5153125 6.8359375 2.8353125 6.8359375 4.1953125 C3.8659375 3.7003125 3.8659375 3.7003125 0.8359375 3.1953125 C1.73857612 5.53407674 1.73857612 5.53407674 4.8359375 6.5078125 C7.8359375 8.1953125 7.8359375 8.1953125 8.9609375 10.6328125 C8.8359375 13.1953125 8.8359375 13.1953125 7.3984375 15.5078125 C3.71780932 17.93164081 1.18979168 17.48556945 -3.1640625 17.1953125 C-3.4940625 15.5453125 -3.8240625 13.8953125 -4.1640625 12.1953125 C-1.8540625 12.1953125 0.4559375 12.1953125 2.8359375 12.1953125 C2.330625 11.89238281 1.8253125 11.58945312 1.3046875 11.27734375 C-0.6558908 10.01308195 -2.44428094 8.7735659 -4.1640625 7.1953125 C-4.7265625 4.5078125 -4.7265625 4.5078125 -4.1640625 2.1953125 C-2.1640625 0.1953125 -2.1640625 0.1953125 0 0 Z " fill="#FF8A75" transform="translate(269.1640625,47.8046875)"/>
<path d="M0 0 C1.65 0 3.3 0 5 0 C6 1 6 1 6.11352539 3.22485352 C6.10828857 4.18319092 6.10305176 5.14152832 6.09765625 6.12890625 C6.09282227 7.68061523 6.09282227 7.68061523 6.08789062 9.26367188 C6.07951172 10.35228516 6.07113281 11.44089844 6.0625 12.5625 C6.05798828 13.65498047 6.05347656 14.74746094 6.04882812 15.87304688 C6.03699826 18.58208495 6.02051543 21.29101599 6 24 C4.02 24 2.04 24 0 24 C0 16.08 0 8.16 0 0 Z " fill="#FF8C78" transform="translate(288,85)"/>
<path d="M0 0 C0.33 0.66 0.66 1.32 1 2 C0.67 2.66 0.34 3.32 0 4 C-3.0625 4.625 -3.0625 4.625 -6 5 C-7.00217064 8.58327753 -7.00217064 8.58327753 -6 12 C-3.69 12 -1.38 12 1 12 C0.625 13.9375 0.625 13.9375 0 16 C-2.88861709 17.44430855 -4.79647701 17.37688506 -8 17 C-10.875 14.9375 -10.875 14.9375 -13 12 C-13.65622237 7.91683857 -13.37781677 5.77206035 -11.5625 2.0625 C-7.85142217 -0.92446508 -4.59138561 -0.44147939 0 0 Z " fill="#FF8A75" transform="translate(221,92)"/>
<path d="M0 0 C1.22589844 0.01353516 1.22589844 0.01353516 2.4765625 0.02734375 C3.41628906 0.04474609 3.41628906 0.04474609 4.375 0.0625 C4.045 1.3825 3.715 2.7025 3.375 4.0625 C1.395 4.3925 -0.585 4.7225 -2.625 5.0625 C-2.625 7.0425 -2.625 9.0225 -2.625 11.0625 C0.84647842 11.81207157 0.84647842 11.81207157 4.375 12.0625 C4.375 13.3825 4.375 14.7025 4.375 16.0625 C1.28326248 17.60836876 -1.21929552 17.35609521 -4.625 17.0625 C-7.59770015 15.02854727 -8.44840322 13.60406347 -9.5625 10.1875 C-9.63936966 6.34401695 -8.65263285 4.29169306 -6.625 1.0625 C-4.21954362 -0.14022819 -2.67503047 -0.03821472 0 0 Z " fill="#FF8A75" transform="translate(235.625,47.9375)"/>
<path d="M0 0 C1.65 0 3.3 0 5 0 C5 7.92 5 15.84 5 24 C3.35 24 1.7 24 0 24 C0 16.08 0 8.16 0 0 Z " fill="#FF8A75" transform="translate(292,41)"/>
<path d="M0 0 C1.32 0 2.64 0 4 0 C4 0.66 4 1.32 4 2 C4.99 1.34 5.98 0.68 7 0 C8.32 0 9.64 0 11 0 C11 1.65 11 3.3 11 5 C9.35 5 7.7 5 6 5 C5.67 8.96 5.34 12.92 5 17 C3.35 17 1.7 17 0 17 C0 11.39 0 5.78 0 0 Z " fill="#FF8A75" transform="translate(341,48)"/>
<path d="M0 0 C1.98 0 3.96 0 6 0 C6 5.61 6 11.22 6 17 C4.02 17 2.04 17 0 17 C0 11.39 0 5.78 0 0 Z " fill="#FF8C77" transform="translate(337,92)"/>
<path d="M0 0 C1.65 0 3.3 0 5 0 C5 5.61 5 11.22 5 17 C3.35 17 1.7 17 0 17 C0 11.39 0 5.78 0 0 Z " fill="#FF8A75" transform="translate(282,48)"/>
<path d="M0 0 C1.65 0 3.3 0 5 0 C5 5.61 5 11.22 5 17 C3.35 17 1.7 17 0 17 C0 11.39 0 5.78 0 0 Z " fill="#FF8A75" transform="translate(217,48)"/>
<path d="M0 0 C1.65 0.33 3.3 0.66 5 1 C5 1.99 5 2.98 5 4 C3.35 4 1.7 4 0 4 C0 2.68 0 1.36 0 0 Z " fill="#FF8A75" transform="translate(338,85)"/>
<path d="M0 0 C1.65 0 3.3 0 5 0 C5 1.32 5 2.64 5 4 C3.35 4 1.7 4 0 4 C0 2.68 0 1.36 0 0 Z " fill="#FF8A75" transform="translate(282,41)"/>
<path d="M0 0 C1.65 0 3.3 0 5 0 C5 1.32 5 2.64 5 4 C3.35 4 1.7 4 0 4 C0 2.68 0 1.36 0 0 Z " fill="#FF8A75" transform="translate(217,41)"/>
</svg>
